<svg width="459" height="1500" viewBox="0 0 459 1500" fill="none" xmlns="http://www.w3.org/2000/svg">
<path opacity="0.15" d="M644.758 9.20076C719.956 -8.64805 792.644 -0.525616 862.821 33.567C932.997 67.6595 994.66 109.853 1047.81 160.147C1100.96 210.441 1154.38 259.558 1208.06 307.498C1261.74 355.437 1311.7 411.41 1357.93 475.416C1404.17 539.421 1433.04 611.594 1444.55 691.935C1456.05 772.276 1438.2 846.169 1391 913.613C1343.79 981.057 1304.57 1046.98 1273.33 1111.38C1242.09 1175.78 1200.67 1233.46 1149.06 1284.42C1097.45 1335.38 1041.17 1383.71 980.238 1429.4C919.303 1475.1 851.231 1498.42 776.022 1499.37C700.812 1500.32 627.258 1490.74 555.361 1470.64C483.463 1450.54 409.9 1428.29 334.671 1403.89C259.443 1379.49 200.373 1333.21 157.46 1265.05C114.548 1196.89 91.0658 1123.06 87.0149 1043.55C82.964 964.04 64.4721 888.199 31.5403 816.025C20.5878 792.021 11.8391 767.511 5.28833 742.498H479.198V532.268H0.000244141C12.1121 471.899 35.9622 416.201 71.55 365.172C117.428 299.39 169.366 239.565 227.365 185.698C285.365 131.831 350.632 93.4107 423.163 70.4361C495.695 47.4616 569.56 27.0496 644.758 9.20076Z" fill="url(#paint0_radial_34_195)"/>
<path opacity="0.15" d="M644.758 9.20002C719.956 -8.64878 792.644 -0.526349 862.821 33.5662C932.997 67.6588 994.66 109.852 1047.81 160.146C1100.96 210.441 1154.38 259.558 1208.06 307.498C1261.74 355.437 1311.7 411.41 1357.93 475.415C1404.17 539.42 1433.04 611.594 1444.55 691.935C1456.05 772.276 1438.2 846.169 1391 913.613C1343.79 981.057 1304.57 1046.98 1273.33 1111.38C1242.09 1175.78 1200.67 1233.46 1149.06 1284.42C1097.45 1335.38 1041.17 1383.71 980.238 1429.4C919.303 1475.1 851.231 1498.42 776.022 1499.37C700.812 1500.32 627.257 1490.74 555.36 1470.64C483.462 1450.54 409.899 1428.28 334.671 1403.89C259.443 1379.49 200.373 1333.21 157.46 1265.05C114.548 1196.89 91.0658 1123.06 87.0149 1043.55C82.964 964.04 64.4721 888.199 31.5403 816.024C20.5878 792.02 11.8391 767.511 5.28833 742.497H479.198V532.268H0.000244141C12.112 471.899 35.962 416.2 71.55 365.172C117.428 299.389 169.366 239.564 227.365 185.697C285.365 131.83 350.632 93.4099 423.163 70.4354C495.695 47.4608 569.56 27.0489 644.758 9.20002Z" fill="url(#paint1_radial_34_195)"/>
<path opacity="0.15" d="M644.758 9.20002C719.956 -8.64878 792.644 -0.526349 862.821 33.5662C932.997 67.6588 994.66 109.852 1047.81 160.146C1100.96 210.441 1154.38 259.558 1208.06 307.498C1261.74 355.437 1311.7 411.41 1357.93 475.415C1404.17 539.42 1433.04 611.594 1444.55 691.935C1456.05 772.276 1438.2 846.169 1391 913.613C1343.79 981.057 1304.57 1046.98 1273.33 1111.38C1242.09 1175.78 1200.67 1233.46 1149.06 1284.42C1097.45 1335.38 1041.17 1383.71 980.238 1429.4C919.303 1475.1 851.231 1498.42 776.022 1499.37C700.812 1500.32 627.257 1490.74 555.36 1470.64C483.462 1450.54 409.899 1428.28 334.671 1403.89C259.443 1379.49 200.373 1333.21 157.46 1265.05C114.548 1196.89 91.0658 1123.06 87.0149 1043.55C82.964 964.04 64.4721 888.199 31.5403 816.024C20.5878 792.02 11.8391 767.511 5.28833 742.497H479.198V532.268H0.000244141C12.112 471.899 35.962 416.2 71.55 365.172C117.428 299.389 169.366 239.564 227.365 185.697C285.365 131.83 350.632 93.4099 423.163 70.4354C495.695 47.4608 569.56 27.0489 644.758 9.20002Z" fill="url(#paint2_radial_34_195)"/>
<path opacity="0.15" d="M644.758 9.20002C719.956 -8.64878 792.644 -0.526349 862.821 33.5662C932.997 67.6588 994.66 109.852 1047.81 160.146C1100.96 210.441 1154.38 259.558 1208.06 307.498C1261.74 355.437 1311.7 411.41 1357.93 475.415C1404.17 539.42 1433.04 611.594 1444.55 691.935C1456.05 772.276 1438.2 846.169 1391 913.613C1343.79 981.057 1304.57 1046.98 1273.33 1111.38C1242.09 1175.78 1200.67 1233.46 1149.06 1284.42C1097.45 1335.38 1041.17 1383.71 980.238 1429.4C919.303 1475.1 851.231 1498.42 776.022 1499.37C700.812 1500.32 627.257 1490.74 555.36 1470.64C483.462 1450.54 409.899 1428.28 334.671 1403.89C259.443 1379.49 200.373 1333.21 157.46 1265.05C114.548 1196.89 91.0658 1123.06 87.0149 1043.55C82.964 964.04 64.4721 888.199 31.5403 816.024C20.5878 792.02 11.8391 767.511 5.28833 742.497H479.198V532.268H0.000244141C12.112 471.899 35.962 416.2 71.55 365.172C117.428 299.389 169.366 239.564 227.365 185.697C285.365 131.83 350.632 93.4099 423.163 70.4354C495.695 47.4608 569.56 27.0489 644.758 9.20002Z" fill="url(#paint3_radial_34_195)"/>
<path opacity="0.15" d="M644.758 9.20002C719.956 -8.64878 792.644 -0.526349 862.821 33.5662C932.997 67.6588 994.66 109.852 1047.81 160.146C1100.96 210.441 1154.38 259.558 1208.06 307.498C1261.74 355.437 1311.7 411.41 1357.93 475.415C1404.17 539.42 1433.04 611.594 1444.55 691.935C1456.05 772.276 1438.2 846.169 1391 913.613C1343.79 981.057 1304.57 1046.98 1273.33 1111.38C1242.09 1175.78 1200.67 1233.46 1149.06 1284.42C1097.45 1335.38 1041.17 1383.71 980.238 1429.4C919.303 1475.1 851.231 1498.42 776.022 1499.37C700.812 1500.32 627.257 1490.74 555.36 1470.64C483.462 1450.54 409.899 1428.28 334.671 1403.89C259.443 1379.49 200.373 1333.21 157.46 1265.05C114.548 1196.89 91.0658 1123.06 87.0149 1043.55C82.964 964.04 64.4721 888.199 31.5403 816.024C20.5878 792.02 11.8391 767.511 5.28833 742.497H479.198V532.268H0.000244141C12.112 471.899 35.962 416.2 71.55 365.172C117.428 299.389 169.366 239.564 227.365 185.697C285.365 131.83 350.632 93.4099 423.163 70.4354C495.695 47.4608 569.56 27.0489 644.758 9.20002Z" fill="url(#paint4_radial_34_195)"/>
<path opacity="0.15" d="M644.758 9.20002C719.956 -8.64878 792.644 -0.526349 862.821 33.5662C932.997 67.6588 994.66 109.852 1047.81 160.146C1100.96 210.441 1154.38 259.558 1208.06 307.498C1261.74 355.437 1311.7 411.41 1357.93 475.415C1404.17 539.42 1433.04 611.594 1444.55 691.935C1456.05 772.276 1438.2 846.169 1391 913.613C1343.79 981.057 1304.57 1046.98 1273.33 1111.38C1242.09 1175.78 1200.67 1233.46 1149.06 1284.42C1097.45 1335.38 1041.17 1383.71 980.238 1429.4C919.303 1475.1 851.231 1498.42 776.022 1499.37C700.812 1500.32 627.257 1490.74 555.36 1470.64C483.462 1450.54 409.899 1428.28 334.671 1403.89C259.443 1379.49 200.373 1333.21 157.46 1265.05C114.548 1196.89 91.0658 1123.06 87.0149 1043.55C82.964 964.04 64.4721 888.199 31.5403 816.024C20.5878 792.02 11.8391 767.511 5.28833 742.497H479.198V532.268H0.000244141C12.112 471.899 35.962 416.2 71.55 365.172C117.428 299.389 169.366 239.564 227.365 185.697C285.365 131.83 350.632 93.4099 423.163 70.4354C495.695 47.4608 569.56 27.0489 644.758 9.20002Z" fill="url(#paint5_radial_34_195)"/>
<path opacity="0.15" d="M721.416 0.000488281C769.632 0.00447723 816.767 11.1927 862.82 33.5659C930.804 66.5931 990.798 107.222 1042.8 155.455C1044.48 157.01 1046.15 158.574 1047.81 160.146C1100.96 210.44 1154.38 259.558 1208.06 307.498C1249.99 344.95 1289.66 387.306 1327.05 434.565C1328.55 436.455 1330.04 438.353 1331.53 440.259C1335.25 445.024 1338.95 449.839 1342.63 454.702C1347.04 460.537 1351.42 466.443 1355.76 472.42C1356.49 473.417 1357.21 474.415 1357.93 475.416C1375.99 500.418 1391.41 526.666 1404.17 554.161C1405.19 556.36 1406.19 558.567 1407.18 560.783C1416.06 580.723 1423.57 601.308 1429.71 622.541C1430.39 624.9 1431.06 627.267 1431.7 629.642C1434.29 639.142 1436.62 648.77 1438.66 658.526C1439.18 660.965 1439.67 663.411 1440.15 665.866C1441.82 674.458 1443.29 683.148 1444.55 691.935C1445.63 699.467 1446.45 706.942 1447.01 714.361C1447.1 715.597 1447.19 716.832 1447.27 718.066C1447.47 721.149 1447.62 724.222 1447.73 727.286C1447.78 728.511 1447.81 729.735 1447.84 730.958C1448.76 769.459 1442.57 806.398 1429.27 841.775C1428.85 842.898 1428.42 844.019 1427.98 845.139C1426.89 847.939 1425.76 850.729 1424.57 853.509C1424.1 854.621 1423.62 855.732 1423.14 856.841C1414.62 876.247 1403.9 895.171 1391 913.613C1343.79 981.057 1304.57 1046.98 1273.33 1111.38C1266.99 1124.46 1260.22 1137.27 1253.04 1149.79C1251.93 1151.72 1250.81 1153.64 1249.69 1155.55C1233.37 1183.31 1214.96 1209.68 1194.46 1234.68C1193.05 1236.4 1191.62 1238.12 1190.19 1239.83C1188.04 1242.4 1185.86 1244.95 1183.67 1247.48C1182.21 1249.17 1180.73 1250.86 1179.25 1252.54C1177.76 1254.21 1176.27 1255.88 1174.77 1257.55C1172.51 1260.05 1170.23 1262.53 1167.93 1265C1165.63 1267.46 1163.31 1269.92 1160.97 1272.35C1159.4 1273.98 1157.83 1275.6 1156.25 1277.21C1153.87 1279.63 1151.48 1282.03 1149.06 1284.42C1147.44 1286.01 1145.83 1287.6 1144.21 1289.19C1093.92 1338.4 1039.27 1385.14 980.237 1429.4C973.573 1434.4 966.823 1439.13 959.987 1443.59C959.011 1444.23 958.033 1444.86 957.053 1445.49C943.333 1454.26 929.272 1461.96 914.869 1468.59C913.84 1469.07 912.81 1469.53 911.777 1470C898.874 1475.78 885.699 1480.71 872.251 1484.79C871.175 1485.12 870.098 1485.44 869.019 1485.75C867.939 1486.07 866.858 1486.38 865.775 1486.68C864.693 1486.99 863.608 1487.28 862.521 1487.58C852.745 1490.22 842.827 1492.42 832.769 1494.17C831.651 1494.37 830.531 1494.56 829.41 1494.74C820.441 1496.21 811.36 1497.34 802.168 1498.11C801.019 1498.21 799.868 1498.3 798.716 1498.39C791.225 1498.94 783.66 1499.27 776.021 1499.37C770.146 1499.44 764.28 1499.45 758.424 1499.4C756.082 1499.38 753.741 1499.34 751.402 1499.3C743.216 1499.15 735.049 1498.88 726.902 1498.48C724.575 1498.37 722.248 1498.24 719.924 1498.11C716.437 1497.9 712.955 1497.68 709.476 1497.43C707.156 1497.27 704.838 1497.09 702.521 1496.9C701.363 1496.81 700.205 1496.71 699.048 1496.62C696.733 1496.42 694.42 1496.21 692.108 1496C685.174 1495.34 678.254 1494.6 671.349 1493.77C669.047 1493.49 666.747 1493.2 664.448 1492.9C648.359 1490.8 632.348 1488.2 616.417 1485.1C610.727 1483.99 605.048 1482.82 599.378 1481.59C595.976 1480.84 592.578 1480.08 589.184 1479.29C586.921 1478.77 584.659 1478.23 582.399 1477.68C573.361 1475.5 564.347 1473.15 555.36 1470.64C544.126 1467.5 532.851 1464.3 521.536 1461.06C517.01 1459.76 512.478 1458.45 507.938 1457.14C451.199 1440.7 393.444 1422.95 334.672 1403.89C328.795 1401.98 323.016 1399.94 317.336 1397.77C316.2 1397.33 315.068 1396.89 313.939 1396.45C295.89 1389.32 278.85 1380.83 262.82 1370.97C261.818 1370.35 260.82 1369.73 259.826 1369.1C232.492 1351.86 208.141 1330.58 186.772 1305.26C185.995 1304.34 185.222 1303.41 184.453 1302.48C175.993 1292.24 168.01 1281.34 160.504 1269.81C159.48 1268.23 158.466 1266.65 157.46 1265.05C155.448 1261.86 153.48 1258.65 151.554 1255.43C150.27 1253.28 149.004 1251.13 147.758 1248.97C142.773 1240.34 138.092 1231.62 133.715 1222.81C132.62 1220.61 131.546 1218.4 130.489 1216.19C123.623 1201.8 117.558 1187.19 112.295 1172.33C111.485 1170.05 110.695 1167.76 109.923 1165.46C104.906 1150.53 100.691 1135.37 97.2783 1119.98C96.7533 1117.61 96.2469 1115.24 95.7598 1112.86C92.5935 1097.39 90.2289 1081.69 88.666 1065.76C88.4256 1063.31 88.2045 1060.85 88.002 1058.39C87.597 1053.46 87.2678 1048.52 87.0146 1043.55C86.2551 1028.64 84.9877 1013.86 83.2129 999.211C82.9171 996.77 82.6072 994.332 82.2832 991.897C78.719 965.118 73.4485 938.772 66.4717 912.859C65.8374 910.503 65.1889 908.151 64.5264 905.802C55.9143 875.271 44.9196 845.345 31.541 816.024C20.7352 792.342 12.072 768.168 5.55078 743.502C5.4623 743.168 5.37675 742.832 5.28906 742.498H479.198V532.268H0C0.0355298 532.091 0.0707135 531.914 0.106445 531.737C6.60829 499.527 16.4547 468.648 29.6455 439.1C30.1432 437.985 30.6461 436.872 31.1533 435.761C42.3137 411.314 55.7793 387.784 71.5498 365.171C88.7538 340.503 106.81 316.673 125.719 293.68C127.295 291.764 128.876 289.853 130.464 287.949C142.371 273.666 154.611 259.71 167.184 246.082C168.86 244.264 170.542 242.453 172.23 240.647C178.139 234.328 184.12 228.08 190.174 221.903C191.903 220.138 193.639 218.379 195.38 216.626C205.829 206.107 216.491 195.798 227.366 185.698C228.272 184.856 229.18 184.018 230.09 183.184C231.91 181.516 233.736 179.862 235.57 178.224C240.155 174.129 244.783 170.128 249.456 166.221C251.325 164.658 253.202 163.111 255.086 161.579C305.939 120.201 361.965 89.8198 423.163 70.4351C439.03 65.4093 454.96 60.5065 470.954 55.7261C475.524 54.3603 480.099 53.0045 484.679 51.6587C537.35 36.1819 590.71 22.0295 644.758 9.20068C669.432 3.34405 693.836 0.283384 717.97 0.019043C719.119 0.00645352 720.268 0.000393359 721.416 0.000488281Z" fill="url(#paint6_radial_34_195)"/>
<defs>
<radialGradient id="paint0_radial_34_195" cx="0" cy="0" r="1" gradientTransform="matrix(-3775.53 -43.6579 49.2288 -3876.78 656.379 768.772)" gradientUnits="userSpaceOnUse">
<stop offset="0.05" stop-color="#1A1A1A" stop-opacity="0"/>
<stop offset="0.173794" stop-color="#2140DE" stop-opacity="0.53"/>
<stop offset="0.18686" stop-color="#9700FF" stop-opacity="0.73"/>
<stop offset="0.211987" stop-color="#DC9D36" stop-opacity="0.64"/>
<stop offset="0.655" stop-color="#646464"/>
<stop offset="1" stop-color="#808080"/>
</radialGradient>
<radialGradient id="paint1_radial_34_195" cx="0" cy="0" r="1" gradientTransform="matrix(-3775.53 -43.6579 49.2288 -3876.78 656.379 768.771)" gradientUnits="userSpaceOnUse">
<stop offset="0.05" stop-color="#1A1A1A" stop-opacity="0"/>
<stop offset="0.173794" stop-color="#2140DE" stop-opacity="0.53"/>
<stop offset="0.18686" stop-color="#9700FF" stop-opacity="0.73"/>
<stop offset="0.211987" stop-color="#DC9D36" stop-opacity="0.64"/>
<stop offset="0.655" stop-color="#646464"/>
<stop offset="1" stop-color="#808080"/>
</radialGradient>
<radialGradient id="paint2_radial_34_195" cx="0" cy="0" r="1" gradientTransform="matrix(-3775.53 -43.6579 49.2288 -3876.78 656.379 768.771)" gradientUnits="userSpaceOnUse">
<stop offset="0.05" stop-color="#1A1A1A" stop-opacity="0"/>
<stop offset="0.173794" stop-color="#2140DE" stop-opacity="0.53"/>
<stop offset="0.18686" stop-color="#9700FF" stop-opacity="0.73"/>
<stop offset="0.211987" stop-color="#DC9D36" stop-opacity="0.64"/>
<stop offset="0.655" stop-color="#646464"/>
<stop offset="1" stop-color="#808080"/>
</radialGradient>
<radialGradient id="paint3_radial_34_195" cx="0" cy="0" r="1" gradientTransform="matrix(-3775.53 -43.6579 49.2288 -3876.78 656.379 768.771)" gradientUnits="userSpaceOnUse">
<stop offset="0.05" stop-color="#1A1A1A" stop-opacity="0"/>
<stop offset="0.173794" stop-color="#2140DE" stop-opacity="0.53"/>
<stop offset="0.18686" stop-color="#9700FF" stop-opacity="0.73"/>
<stop offset="0.211987" stop-color="#DC9D36" stop-opacity="0.64"/>
<stop offset="0.655" stop-color="#646464"/>
<stop offset="1" stop-color="#808080"/>
</radialGradient>
<radialGradient id="paint4_radial_34_195" cx="0" cy="0" r="1" gradientTransform="matrix(-3775.53 -43.6579 49.2288 -3876.78 656.379 768.771)" gradientUnits="userSpaceOnUse">
<stop offset="0.05" stop-color="#1A1A1A" stop-opacity="0"/>
<stop offset="0.173794" stop-color="#2140DE" stop-opacity="0.53"/>
<stop offset="0.18686" stop-color="#9700FF" stop-opacity="0.73"/>
<stop offset="0.211987" stop-color="#DC9D36" stop-opacity="0.64"/>
<stop offset="0.655" stop-color="#646464"/>
<stop offset="1" stop-color="#808080"/>
</radialGradient>
<radialGradient id="paint5_radial_34_195" cx="0" cy="0" r="1" gradientTransform="matrix(-3775.53 -43.6579 49.2288 -3876.78 656.379 768.771)" gradientUnits="userSpaceOnUse">
<stop offset="0.05" stop-color="#1A1A1A" stop-opacity="0"/>
<stop offset="0.173794" stop-color="#2140DE" stop-opacity="0.53"/>
<stop offset="0.18686" stop-color="#9700FF" stop-opacity="0.73"/>
<stop offset="0.211987" stop-color="#DC9D36" stop-opacity="0.64"/>
<stop offset="0.655" stop-color="#646464"/>
<stop offset="1" stop-color="#808080"/>
</radialGradient>
<radialGradient id="paint6_radial_34_195" cx="0" cy="0" r="1" gradientTransform="matrix(-3775.53 -43.6579 49.2288 -3876.77 656.379 768.771)" gradientUnits="userSpaceOnUse">
<stop offset="0.05" stop-color="#1A1A1A" stop-opacity="0"/>
<stop offset="0.173794" stop-color="#2140DE" stop-opacity="0.53"/>
<stop offset="0.18686" stop-color="#9700FF" stop-opacity="0.73"/>
<stop offset="0.211987" stop-color="#DC9D36" stop-opacity="0.64"/>
<stop offset="0.655" stop-color="#646464"/>
<stop offset="1" stop-color="#808080"/>
</radialGradient>
</defs>
</svg>
