<svg width="805" height="608" viewBox="0 0 805 608" fill="none" xmlns="http://www.w3.org/2000/svg">
<g clip-path="url(#clip0_52_24)">
<mask id="mask0_52_24" style="mask-type:luminance" maskUnits="userSpaceOnUse" x="-1" y="0" width="806" height="608">
<path d="M804.866 608L-0.134094 608L-0.134094 0L804.866 0L804.866 608Z" fill="white"/>
</mask>
<g mask="url(#mask0_52_24)">
<g opacity="0.2" filter="url(#filter0_f_52_24)">
<path d="M-282.293 998.853L-307.134 974.012L128.673 538.205L432.709 248.786L153.514 563.046L-282.293 998.853Z" fill="url(#paint0_linear_52_24)"/>
</g>
<g opacity="0.32" filter="url(#filter1_f_52_24)">
<path d="M-75.2081 988.376L-100.049 963.535L335.758 527.727L639.795 238.309L360.599 552.568L-75.2081 988.376Z" fill="url(#paint1_linear_52_24)"/>
</g>
<g opacity="0.32" filter="url(#filter2_f_52_24)">
<path d="M4.2979 1095L-20.5432 1070.16L415.264 634.352L719.3 344.933L440.105 659.193L4.2979 1095Z" fill="url(#paint2_linear_52_24)"/>
</g>
</g>
</g>
<defs>
<filter id="filter0_f_52_24" x="-387.134" y="168.786" width="899.843" height="910.067" filterUnits="userSpaceOnUse" color-interpolation-filters="sRGB">
<feFlood flood-opacity="0" result="BackgroundImageFix"/>
<feBlend mode="normal" in="SourceGraphic" in2="BackgroundImageFix" result="shape"/>
<feGaussianBlur stdDeviation="40" result="effect1_foregroundBlur_52_24"/>
</filter>
<filter id="filter1_f_52_24" x="-180.049" y="158.309" width="899.844" height="910.067" filterUnits="userSpaceOnUse" color-interpolation-filters="sRGB">
<feFlood flood-opacity="0" result="BackgroundImageFix"/>
<feBlend mode="normal" in="SourceGraphic" in2="BackgroundImageFix" result="shape"/>
<feGaussianBlur stdDeviation="40" result="effect1_foregroundBlur_52_24"/>
</filter>
<filter id="filter2_f_52_24" x="-100.543" y="264.933" width="899.843" height="910.067" filterUnits="userSpaceOnUse" color-interpolation-filters="sRGB">
<feFlood flood-opacity="0" result="BackgroundImageFix"/>
<feBlend mode="normal" in="SourceGraphic" in2="BackgroundImageFix" result="shape"/>
<feGaussianBlur stdDeviation="40" result="effect1_foregroundBlur_52_24"/>
</filter>
<linearGradient id="paint0_linear_52_24" x1="-294.714" y1="986.433" x2="141.094" y2="550.625" gradientUnits="userSpaceOnUse">
<stop stop-color="white"/>
<stop offset="1" stop-color="#D3D8DF"/>
</linearGradient>
<linearGradient id="paint1_linear_52_24" x1="-87.6286" y1="975.955" x2="348.179" y2="540.148" gradientUnits="userSpaceOnUse">
<stop stop-color="white"/>
<stop offset="1" stop-color="#D3D8DF"/>
</linearGradient>
<linearGradient id="paint2_linear_52_24" x1="-8.12262" y1="1082.58" x2="427.685" y2="646.772" gradientUnits="userSpaceOnUse">
<stop stop-color="white"/>
<stop offset="1" stop-color="#D3D8DF"/>
</linearGradient>
<clipPath id="clip0_52_24">
<rect width="805" height="608" fill="white" transform="matrix(1 0 0 -1 -0.134094 608)"/>
</clipPath>
</defs>
</svg>
